<svg version="1.1" id="Layer_1" xmlns="http://www.w3.org/2000/svg" xmlns:xlink="http://www.w3.org/1999/xlink" x="0px" y="0px"
	 width="100%" viewBox="0 0 512 512" enable-background="new 0 0 512 512" xml:space="preserve">
<path fill="#000000" opacity="1.000000" stroke="none" 
	d="
M101.239380,265.297058 
	C108.146278,260.025848 107.837708,254.869339 104.355614,247.320801 
	C95.635628,228.417511 104.763031,203.137619 122.845718,193.080353 
	C125.445946,191.634171 126.719528,189.813400 127.426498,187.051804 
	C132.106155,168.772049 143.019745,156.040924 161.121765,149.988220 
	C164.115372,148.987244 165.079910,146.868622 166.071945,144.296066 
	C173.548630,124.907394 186.935242,112.403488 207.974228,109.464584 
	C221.875946,107.522682 233.942490,111.984344 244.077209,121.570129 
	C246.310150,123.682137 247.827530,124.744141 250.561249,122.025574 
	C274.284119,98.434143 312.168884,108.928574 325.610931,137.649429 
	C329.015472,144.923691 332.656769,149.847519 340.504852,153.063751 
	C354.409149,158.761917 362.705872,170.224319 366.263977,184.826569 
	C367.235748,188.814667 369.003418,191.435822 372.713348,193.562134 
	C392.223572,204.744019 399.436218,232.113937 388.213501,252.223785 
	C386.379425,255.510208 386.832062,257.333862 389.291290,259.899841 
	C411.075226,282.629181 405.230652,318.825653 377.413086,333.115265 
	C373.477753,335.136810 372.440857,337.835052 371.580200,341.917480 
	C367.076782,363.279205 354.173096,377.513733 333.345428,384.041809 
	C328.110321,385.682648 324.721313,387.823700 321.949707,392.954681 
	C308.561493,417.739594 279.600433,427.601135 253.749664,416.551453 
	C249.251831,414.628906 245.651123,414.672180 241.095459,416.730835 
	C215.781387,428.170197 185.326492,417.406006 172.209625,392.376404 
	C169.951050,388.066559 167.090042,386.028137 162.662460,384.750488 
	C142.861877,379.036743 129.481094,366.097870 124.275375,346.359528 
	C122.304901,338.888153 119.070213,334.846039 112.898254,330.788879 
	C91.235504,316.548676 86.035606,286.194031 101.239380,265.297058 
M186.027328,140.563370 
	C184.346710,143.448425 183.341736,146.659256 181.883835,149.611755 
	C178.672073,156.116150 175.517044,162.796616 167.432602,164.987701 
	C153.439117,168.780243 144.104706,180.162018 143.440292,194.710815 
	C143.229080,199.335815 141.494705,201.534973 137.338867,203.047653 
	C131.528793,205.162460 126.662827,208.754425 122.666855,214.973007 
	C134.322098,214.973007 145.097702,215.057327 155.871078,214.939011 
	C161.642776,214.875641 167.407013,215.515533 173.123322,213.297958 
	C177.129486,211.743835 180.698944,213.977707 182.935394,217.476852 
	C184.967438,220.656204 185.053268,224.196716 182.715469,227.321930 
	C180.193283,230.693649 176.514847,232.416626 172.594009,230.797119 
	C168.209091,228.985901 163.828430,229.158829 159.359543,229.145111 
	C148.361679,229.111374 137.363739,229.092453 126.365829,229.083099 
	C116.271805,229.074509 115.377090,230.231415 118.062874,239.985748 
	C118.501083,241.577240 119.174606,243.118835 119.873741,244.620956 
	C122.719254,250.734680 126.964493,254.392014 134.299957,253.750870 
	C139.427429,253.302704 144.673599,253.183990 149.778168,253.736526 
	C158.024094,254.629089 161.957382,249.727341 164.970520,243.421555 
	C166.144516,240.964630 167.327576,238.644989 169.525116,236.996979 
	C173.972076,233.661957 179.391510,234.622589 182.627914,239.281479 
	C185.519806,243.444473 184.690842,250.212036 179.911133,251.713348 
	C173.260788,253.802246 170.729080,259.006165 167.608429,263.964294 
	C165.220230,267.758698 162.171936,269.354248 157.682449,269.268188 
	C146.688293,269.057434 135.686142,269.282654 124.690819,269.107025 
	C120.075806,269.033356 116.755875,270.889587 114.008972,274.408325 
	C105.159210,285.744598 107.594536,306.871643 118.862267,315.736145 
	C119.727242,316.416626 120.528336,317.463409 121.881119,317.006287 
	C122.928436,316.319916 122.671684,315.221741 122.802292,314.271881 
	C123.614471,308.365082 126.096649,305.687103 130.653290,305.838226 
	C135.279083,305.991669 138.102310,309.413086 138.186356,315.194275 
	C138.268707,320.858704 138.208969,326.525177 138.210892,332.190765 
	C138.217987,353.174011 154.435669,370.195923 175.366364,370.781952 
	C179.925858,370.909637 181.705246,372.714142 182.838943,376.917053 
	C189.691818,402.322327 218.316513,413.702942 240.664474,399.686462 
	C245.683182,396.538727 249.158112,396.717377 254.092270,399.675812 
	C277.412292,413.658173 304.754913,402.719604 312.178925,376.610046 
	C313.339172,372.529633 315.413635,371.067841 319.530853,370.792267 
	C342.783020,369.235657 358.283051,349.421875 356.869873,330.420654 
	C356.426483,324.459229 356.776520,318.428040 356.958649,312.434753 
	C357.069427,308.788483 359.228851,306.560394 362.783691,305.976501 
	C366.488098,305.368011 369.405212,306.658081 370.786682,310.347565 
	C371.581146,312.469452 372.091125,314.697815 372.699738,316.777557 
	C374.491943,317.110626 375.437561,316.060669 376.435272,315.227570 
	C386.846222,306.534180 389.172272,285.584198 380.948608,274.882477 
	C378.052155,271.113220 374.622986,268.970062 369.503326,269.111145 
	C358.180664,269.423096 346.841797,269.096985 335.513489,269.278625 
	C331.556976,269.342072 328.802094,267.952515 326.843536,264.607513 
	C325.750244,262.740326 324.426697,261.007751 323.338165,259.138062 
	C321.465240,255.920898 319.398132,253.465790 315.315796,252.428986 
	C310.219849,251.134781 308.226532,244.751190 310.863190,240.109604 
	C312.715240,236.849228 315.537994,234.710770 319.410248,235.076752 
	C323.329926,235.447220 326.221436,237.679993 327.699310,241.411438 
	C330.863464,249.400330 335.680176,254.415436 345.294922,253.226273 
	C350.869354,252.536819 356.609406,253.080597 362.270386,253.235382 
	C365.700317,253.329163 368.567108,252.165939 370.677521,249.621521 
	C374.249573,245.314804 376.562561,240.456619 376.986053,234.698257 
	C377.289795,230.568619 375.900146,229.055405 371.686218,229.109848 
	C358.024506,229.286392 344.358948,229.164185 330.694855,229.150513 
	C327.860840,229.147675 325.187317,229.418533 322.453888,230.606140 
	C318.597565,232.281647 314.784180,231.403000 312.113098,228.004105 
	C309.343933,224.480438 309.283630,220.497711 311.833771,216.845917 
	C314.409576,213.157394 318.129211,212.000977 322.396851,213.601837 
	C324.613525,214.433334 326.781281,215.032333 329.173309,215.018860 
	C341.670593,214.948502 354.168488,214.976715 366.665619,214.892349 
	C368.010651,214.883255 369.675507,215.572876 370.821472,213.683731 
	C367.069183,208.614365 362.234711,204.983109 356.339539,202.736832 
	C353.657104,201.714722 351.808838,200.227448 351.654144,197.007446 
	C350.843262,180.125229 341.870636,169.605011 326.047028,164.518600 
	C324.144012,163.906876 322.021912,163.487228 320.940887,161.635132 
	C318.092468,156.755234 314.283722,152.461182 312.172180,147.132980 
	C306.925323,133.893250 296.949432,126.896416 283.001129,125.414604 
	C270.772888,124.115524 256.101471,134.654572 255.251434,145.744507 
	C254.654694,153.529800 255.113022,161.396057 255.103470,169.226166 
	C255.101242,171.067322 255.702927,172.333542 257.721008,172.894180 
	C261.084747,173.828629 264.387543,174.990280 267.692932,176.123657 
	C269.543732,176.758301 271.323730,176.725128 271.420135,174.431808 
	C271.576141,170.721680 273.221466,166.513046 267.284332,164.854645 
	C263.267517,163.732635 261.516144,159.878311 261.971069,155.637665 
	C262.455444,151.122391 265.501770,148.558807 269.608276,147.337952 
	C273.578033,146.157730 277.356506,148.133163 278.370667,151.343536 
	C280.360779,157.643265 285.688507,162.906265 284.385712,170.293640 
	C283.957764,172.720169 284.509827,175.305466 284.233612,177.775650 
	C283.594604,183.489883 285.731598,187.641464 289.578217,192.002121 
	C303.798309,208.122421 308.804932,226.770752 302.089630,247.637314 
	C295.827972,267.094116 282.575989,279.771301 263.070129,285.868134 
	C254.923553,288.414490 254.918152,288.372498 254.922989,297.106079 
	C254.927689,305.604462 254.951996,314.103119 254.898148,322.601196 
	C254.845383,330.928192 254.949875,339.267609 254.509613,347.576385 
	C254.252594,352.426605 250.885757,355.291046 246.856354,355.168610 
	C242.989914,355.051117 240.081360,351.716064 239.771057,346.944763 
	C239.663101,345.284668 239.712418,343.613342 239.714844,341.947205 
	C239.738449,325.783630 239.667282,309.618805 239.867859,293.457397 
	C239.915710,289.601349 238.720825,287.737610 234.824829,286.968781 
	C229.423157,285.902802 224.278671,283.848267 219.479218,281.096039 
	C186.030609,261.915222 179.663422,217.650909 206.324142,189.355392 
	C208.480133,187.067215 210.023758,184.874451 209.816986,181.509857 
	C209.236389,172.062469 209.678986,162.790543 214.190948,154.062027 
	C216.290070,150.001221 219.002380,146.924957 223.621368,147.139420 
	C228.142014,147.349335 231.273987,150.158661 232.485962,154.692917 
	C233.631302,158.977829 232.028488,162.242355 228.387207,164.473465 
	C222.760590,167.921036 222.183182,169.339493 224.410995,176.275177 
	C228.825577,175.062256 233.295303,173.909927 237.713730,172.586365 
	C239.743286,171.978424 239.627686,170.091492 239.633575,168.415970 
	C239.655807,162.083893 239.376923,155.735153 239.746246,149.423981 
	C240.170746,142.170135 236.847321,136.879456 231.683334,132.550690 
	C217.455780,120.624336 198.612686,123.761238 186.027328,140.563370 
M234.327271,206.491425 
	C234.333221,208.157730 234.172852,209.844803 234.377640,211.486298 
	C234.901291,215.684006 233.351379,217.560791 228.934616,217.660721 
	C223.770340,217.777573 218.612961,218.097122 213.460648,217.617172 
	C209.449936,217.243591 207.462875,219.005508 207.420761,222.977585 
	C207.371292,227.642685 207.490936,232.312180 207.330963,236.972687 
	C207.181198,241.335281 209.280807,242.918900 213.425003,242.824982 
	C219.087204,242.696671 224.755157,242.845596 230.420120,242.805283 
	C233.354019,242.784409 234.570465,243.989883 234.462173,247.049255 
	C234.255981,252.874466 234.510345,258.716339 234.290924,264.540649 
	C234.117645,269.140320 236.254608,270.863190 240.602661,270.739380 
	C245.098404,270.611359 249.604477,270.530396 254.096832,270.689178 
	C258.452637,270.843201 260.087311,268.834564 259.957336,264.650970 
	C259.802155,259.656769 259.872345,254.653976 259.918152,249.655579 
	C259.979309,242.984650 260.108765,242.866409 266.570496,242.830185 
	C271.569214,242.802155 276.570312,242.733810 281.566376,242.851837 
	C285.105225,242.935440 286.842255,241.510376 286.786102,237.866425 
	C286.706482,232.702255 286.733215,227.535431 286.787933,222.370529 
	C286.827484,218.635742 284.729340,217.136581 281.387329,217.570984 
	C275.866821,218.288544 270.402924,217.259018 264.920502,217.428864 
	C261.264191,217.542160 259.792511,216.027725 259.879517,212.410919 
	C260.011719,206.915451 259.827789,201.412781 259.931732,195.916077 
	C260.008545,191.856567 258.077637,190.177963 254.145279,190.243622 
	C249.314621,190.324280 244.480240,190.319580 239.649780,190.229095 
	C236.296234,190.166290 234.677551,191.915878 234.500015,195.018814 
	C234.300400,198.507950 234.371185,202.012573 234.327271,206.491425 
z"/>
<path fill="#000000" opacity="1.000000" stroke="none" 
	d="
M158.611557,323.242371 
	C155.705963,320.092041 155.977844,316.546082 156.000977,313.046173 
	C156.032852,308.222778 156.049255,303.398956 156.020050,298.575623 
	C156.007660,296.527283 155.910080,294.222717 153.140747,294.206879 
	C148.057785,294.177734 142.857620,292.948456 137.987152,295.666046 
	C133.877838,297.958954 130.267868,297.018341 127.391182,293.388062 
	C124.592445,289.856171 124.226746,286.117554 126.973167,282.382416 
	C129.639496,278.756226 133.299698,277.136627 137.441406,279.166626 
	C142.572311,281.681427 147.880020,280.651123 153.129303,280.841370 
	C157.780441,281.009918 162.443192,280.903107 167.100067,280.851196 
	C169.805176,280.821014 172.098892,281.554077 173.260895,284.177734 
	C174.335220,286.603455 172.815689,288.304535 171.251221,289.862457 
	C170.288345,290.821320 169.333344,291.759277 169.332169,293.218170 
	C169.326569,300.202728 169.317520,307.187500 169.373550,314.171692 
	C169.392899,316.581757 171.382126,317.383026 173.092636,318.427734 
	C179.554001,322.373810 180.735413,326.169647 177.394638,332.965057 
	C176.480362,334.824799 176.585632,336.270050 177.383774,338.102875 
	C179.365158,342.652832 178.297928,346.629761 174.277954,349.552948 
	C170.778442,352.097687 167.042572,352.080017 163.726135,349.267853 
	C160.027344,346.131439 159.057541,342.323425 161.240768,337.666351 
	C164.428085,330.867371 163.971497,328.941803 158.611557,323.242371 
z"/>
<path fill="#000000" opacity="1.000000" stroke="none" 
	d="
M338.155823,309.960144 
	C338.576721,316.761261 338.153351,322.560059 332.521027,327.079742 
	C330.094177,329.027222 330.912872,332.634460 332.012146,335.535767 
	C332.421204,336.615356 333.200745,337.555878 333.599487,338.637878 
	C335.165039,342.886230 334.134491,346.569702 330.679932,349.388214 
	C327.644562,351.864777 324.127197,351.946228 320.876007,349.959167 
	C317.217621,347.723236 315.698730,344.062897 316.973083,340.040863 
	C318.041351,336.669373 318.131836,333.996155 316.373596,330.721954 
	C314.140350,326.563354 315.782562,322.126282 320.531525,319.271912 
	C324.054779,317.154266 325.179535,314.554596 324.977264,310.682312 
	C324.743134,306.200378 324.891998,301.694489 324.980072,297.201019 
	C325.039825,294.151611 324.612152,291.495758 322.609802,288.851013 
	C319.623718,284.906921 321.544739,281.180695 326.515778,280.984314 
	C332.832855,280.734711 339.165741,280.847290 345.491547,280.870941 
	C349.324188,280.885254 353.000488,280.756683 356.654297,279.021484 
	C360.811646,277.047180 364.556854,278.630829 367.147430,282.247437 
	C369.924347,286.124207 369.581421,290.237793 366.490204,293.729309 
	C363.581360,297.014832 359.758423,298.239624 355.709747,295.837860 
	C351.015839,293.053345 345.999146,294.244202 341.086517,294.169067 
	C338.668976,294.132080 338.184204,295.968781 338.180450,297.982941 
	C338.173370,301.811829 338.163574,305.640717 338.155823,309.960144 
z"/>
<path fill="#000000" opacity="1.000000" stroke="none" 
	d="
M247.956085,382.291321 
	C233.542664,382.202820 221.750183,377.531006 213.226288,366.066559 
	C210.789917,362.789703 209.306244,359.221771 212.939560,355.795624 
	C215.941986,352.964386 219.527542,353.348022 223.283386,357.732178 
	C233.949951,370.183197 259.275360,371.500488 271.159332,357.494141 
	C273.835205,354.340363 277.291992,352.351044 281.115051,355.652740 
	C284.805389,358.839844 283.670563,362.572174 281.165771,365.910706 
	C272.998444,376.796509 261.806641,381.749542 247.956085,382.291321 
z"/>
<path fill="#000000" opacity="1.000000" stroke="none" 
	d="
M328.073181,201.747070 
	C320.398773,200.294250 313.062012,201.123230 305.756531,200.947647 
	C299.177155,200.789520 298.004669,199.734634 297.950928,193.019058 
	C297.913635,188.356400 297.870270,183.693130 297.908569,179.030777 
	C297.930695,176.341309 297.578522,173.813675 296.544556,171.255173 
	C294.697021,166.683243 296.332733,161.899429 300.189056,159.418503 
	C303.836090,157.072266 308.451691,157.545792 311.623230,160.784561 
	C315.080719,164.315353 315.789429,168.319244 312.898285,172.531525 
	C310.060577,176.665985 311.472137,181.220322 311.403229,185.619537 
	C311.382202,186.961823 312.537018,187.677261 313.820526,187.648376 
	C318.592499,187.541000 323.434021,188.667175 328.099304,186.624939 
	C333.265930,184.363235 337.708649,185.098663 340.251160,188.668839 
	C342.692749,192.097275 343.190704,195.815033 340.515320,199.323120 
	C337.319946,203.513046 333.135620,204.049789 328.073181,201.747070 
z"/>
<path fill="#000000" opacity="1.000000" stroke="none" 
	d="
M196.283325,176.575806 
	C196.277603,183.005478 196.242401,188.991852 196.314545,194.976929 
	C196.364807,199.147614 194.461121,201.051682 190.245773,200.951599 
	C185.094208,200.829315 179.936844,200.976562 174.782593,200.934021 
	C171.114792,200.903748 167.552200,201.050644 164.022507,202.436661 
	C160.198059,203.938400 156.726105,202.825974 154.353729,199.431137 
	C152.037918,196.117233 151.965485,192.437393 154.272446,189.146194 
	C156.695953,185.688736 160.451935,184.004929 164.322739,185.836151 
	C169.287735,188.185043 174.341324,187.723587 179.454437,187.853119 
	C182.392395,187.927536 183.710342,186.637238 183.674530,183.685806 
	C183.624512,179.564590 183.966843,175.588028 181.288864,171.783020 
	C178.520370,167.849411 179.933884,163.738220 183.074692,160.463898 
	C186.156067,157.251541 190.710938,156.945312 194.468552,159.647049 
	C198.191071,162.323532 199.746506,165.959656 198.280273,170.539795 
	C197.677338,172.423203 196.276474,174.025131 196.283325,176.575806 
z"/>
<path fill="#000000" opacity="1.000000" stroke="none" 
	d="
M293.081299,305.886383 
	C301.350616,304.704041 306.806305,307.680817 308.877686,314.205200 
	C310.571899,319.541656 307.995819,325.914398 303.000153,328.745178 
	C296.474274,332.442993 289.156433,330.311401 285.649200,323.691040 
	C281.881104,316.578278 284.530792,309.928558 293.081299,305.886383 
z"/>
<path fill="#000000" opacity="1.000000" stroke="none" 
	d="
M190.223236,308.148438 
	C198.653152,303.361847 206.078690,305.260071 209.354614,312.729095 
	C212.345596,319.548462 209.013107,327.349762 202.012939,329.916046 
	C197.048325,331.736053 191.397369,329.951599 188.286102,325.581390 
	C184.307175,319.992432 184.858658,314.208466 190.223236,308.148438 
z"/>
<path fill="#000000" opacity="1.000000" stroke="none" 
	d="
M188.476654,271.223389 
	C192.498367,273.883240 194.299118,277.286957 193.070892,281.644562 
	C191.939575,285.658356 189.118332,288.032013 184.809113,288.447449 
	C180.870255,288.827179 178.029526,287.085266 176.135590,283.833191 
	C174.080399,280.304230 174.476639,276.722260 177.009613,273.620972 
	C179.971344,269.994720 183.771790,269.050659 188.476654,271.223389 
z"/>
<path fill="#000000" opacity="1.000000" stroke="none" 
	d="
M312.251923,270.482422 
	C317.351440,272.231293 319.651367,275.630432 319.084991,280.520233 
	C318.565857,285.001709 315.569244,287.621246 311.231506,288.360962 
	C306.962036,289.089050 303.875458,287.109711 301.813202,283.381531 
	C298.984436,278.267578 303.266846,268.415741 312.251923,270.482422 
z"/>
</svg>